# xmcd
#
# Track frame offsets: 
#        150
#        4320
#        19670
#        34104
#        48411
#        61099
#        84938
#        99424
#        118246
#        133666
#        152831
#        172500
#
# Disc length: 2322 seconds
#
# Revision: 0
# Processed by: cddbd v1.5.2PL0 Copyright (c) Steve Scherf et al.
# Submitted via: ExactAudioCopy v1.3
#
DISCID=8909100c
DTITLE=Anthony Gomes - ...Before The Beginning
DYEAR=2013
DGENRE=Blues Rock
TTITLE0=Before The Beginning
TTITLE1=Blues Is Good
TTITLE2=Lady Soul
TTITLE3=Love Is Everything
TTITLE4=Sinner's Song
TTITLE5=Golden Wings
TTITLE6=Let's Fall In Love
TTITLE7=Rescue Me
TTITLE8=Beautiful Goodbye
TTITLE9=Blues In Technicolor
TTITLE10=Old Ten Wheeler
TTITLE11=The End Comes...
EXTD=
EXTT0=
EXTT1=
EXTT2=
EXTT3=
EXTT4=
EXTT5=
EXTT6=
EXTT7=
EXTT8=
EXTT9=
EXTT10=
EXTT11=
PLAYORDER=
